<?xml version="1.0" standalone="no"?><!DOCTYPE svg PUBLIC "-//W3C//DTD SVG 1.1//EN" "http://www.w3.org/Graphics/SVG/1.1/DTD/svg11.dtd"><svg t="1520171276525" class="icon" style="" viewBox="0 0 1024 1024" version="1.1" xmlns="http://www.w3.org/2000/svg" p-id="2087" xmlns:xlink="http://www.w3.org/1999/xlink" width="200" height="200"><defs><style type="text/css"></style></defs><path d="M919.472067 392.543232c-5.71904 10.042368 1.738752 18.848768 2.840576 28.21632 2.801664 23.696384 6.588416 47.27808 9.988096 70.897664-7.379968 11.569152-16.132096 22.03648-28.517376 31.905792 0-14.388224 0.193536-28.756992-0.057344-43.12576-0.387072-21.456896-3.632128-42.7008-9.293824-63.250432-3.1488-11.45344-0.25088-16.45568 10.124288-19.429376 5.061632-1.429504 9.950208-3.457024 14.915584-5.214208M759.689155 559.408128c-18.894848-0.135168-32.787456-14.291968-32.74752-33.412096 0.037888-19.06176 14.084096-33.19808 32.960512-33.179648 18.25792 0.019456 33.308672 15.141888 33.231872 33.39264-0.058368 18.270208-15.224832 33.314816-33.44384 33.199104m-191.565824 0c-18.895872-0.135168-32.787456-14.291968-32.748544-33.412096 0.037888-19.06176 14.103552-33.19808 32.960512-33.179648 18.25792 0.019456 33.309696 15.141888 33.251328 33.39264-0.0768 18.270208-15.244288 33.314816-33.46432 33.199104m261.700608-162.01728c-2.860032-31.287296-10.008576-61.763584-17.292288-92.22144-0.483328-3.591168-1.584128-6.971392-3.57376-9.984-17.446912-26.633216-39.337984-49.3056-63.025152-70.358016-2.89792-2.587648-6.39488-4.982784-10.857472-3.939328-1.69984-0.483328-3.555328-0.657408-5.0432-1.487872-99.694592-55.524352-204.45184-65.76128-312.416256-30.6688-86.904832 28.255232-158.430208 78.488576-205.514752 159.13984-11.978752 20.51072-23.30112 41.62048-30.083072 64.370688-35.06688 117.578752-78.229504 159.391744-73.534464 163.54304-16.017408 27.328512-37.7344 48.785408-64.76288 65.18272-3.806208 2.317312-9.91232 2.742272-9.622528 9.40544 2.280448 3.766272 5.9904 5.368832 10.0864 5.870592 33.289216 4.017152 66.521088 8.710144 100.215808 4.50048 14.200832-1.77664 28.440576-3.321856 42.621952-5.25312 7.438336-1.024 14.83776-0.405504 18.95424 6.836224 3.844096 6.79936 0.057344 12.959744-3.652608 18.695168-4.153344 6.392832-9.602048 11.820032-13.968384 18.038784-8.501248 12.147712-18.68288 20.317184-34.719744 15.624192l-6.723584 8.343552c0.328704 9.965568 2.956288 19.8144-7.168 27.94496-12.3648 9.947136-11.76576 12.708864-0.270336 24.296448a108.01152 108.01152 0 0 0 7.902208 7.242752C215.907267 839.08096 293.905347 874.5984 381.852611 888.195072c18.026496 2.799616 36.748288 1.872896 53.94432 9.40544 24.787968-1.738752 48.55296-8.574976 71.872512-16.203776 118.572032-38.780928 210.538496-110.915584 271.592448-220.460032 45.790208-82.138112 58.985472-170.84416 50.562048-263.54688" fill="#B5E6D1" p-id="2088"></path><path d="M759.902147 472.28928c18.25792 0.018432 33.308672 15.140864 33.231872 33.39264-0.058368 18.269184-15.224832 33.313792-33.44384 33.19808-18.895872-0.115712-32.78848-14.291968-32.749568-33.39264 0.038912-19.06176 14.08512-33.21856 32.961536-33.19808M601.586627 505.68192c-0.0768 18.269184-15.244288 33.313792-33.46432 33.19808-18.894848-0.115712-32.786432-14.291968-32.74752-33.39264 0.037888-19.06176 14.103552-33.21856 32.960512-33.19808 18.25792 0.018432 33.309696 15.140864 33.251328 33.39264m-208.083968-99.540992c-4.637696 11.433984-17.60256 16.95744-29.097984 12.302336-42.021888-17.014784-85.706752-22.653952-91.947008-15.295488-9.56416 12.688384 28.208128 81.829888 89.474048 148.691968 8.346624 9.076736 7.709696 23.21408-1.37216 31.557632-4.288512 3.919872-9.69728 5.851136-15.108096 5.851136-6.028288 0-12.075008-2.433024-16.4608-7.241728-40.8064-44.517376-131.497984-153.73312-92.198912-205.76256 31.009792-41.078784 118.378496-9.752576 144.422912 0.811008 11.4176 4.635648 16.924672 17.652736 12.288 29.085696M500.965315 881.26464c-1.738752 0.057344-186.2912 6.00576-357.2224-118.350848 46.680064-38.684672 65.343488-83.954688 66.23232-86.175744a22.214656 22.214656 0 0 0-2.89792-21.784576c-4.714496-6.27712-12.191744-9.540608-20.170752-8.768512-36.825088 3.88096-91.73504 4.017152-124.40576-4.481024 28.110848-27.675648 41.094144-58.88512 48.861184-77.580288h0.02048c21.947392-52.840448 30.217216-128.8192 31.47264-141.50656 40.824832-165.320704 188.24192-280.6784 359.018496-280.6784 203.911168 0 369.799168 165.822464 369.799168 369.65376 0 203.830272-165.888 369.652736-370.707456 369.672192m472.23808-483.311616c7.07072 9.387008-17.118208 51.37408-57.653248 97.821696-1.178624-30.979072-5.757952-61.048832-13.408256-89.942016 34.29376-10.814464 65.998848-13.847552 71.061504-7.87968m35.646464-26.921984c-24.382464-32.29184-83.600384-19.795968-120.464384-7.860224C828.510147 207.910912 678.058947 97.286144 501.873603 97.286144c-191.98976 0-357.646336 130.0736-402.819072 316.348416a22.4768 22.4768 0 0 0-0.540672 3.2256c-0.0768 0.791552-7.477248 79.762432-28.382208 130.112512-8.732672 20.934656-23.30112 55.93088-59.952128 79.744A22.290432 22.290432 0 0 0 0.170947 642.668544a22.35392 22.35392 0 0 0 5.757952 17.923072c27.783168 30.089216 95.946752 34.087936 142.567424 32.754688-11.920384 15.972352-29.541376 34.879488-53.962752 50.15552-6.12352 3.82464-10.007552 10.391552-10.451968 17.595392a22.35392 22.35392 0 0 0 8.2688 18.7136c171.317248 138.185728 360.255488 146.239488 401.50528 146.239488 4.501504 0 7.225344-0.096256 8.01792-0.135168 210.828288 0 385.00352-158.271488 410.816512-362.10176 45.887488-44.632064 134.646784-141.796352 96.159744-192.78336" fill="#0DAF69" p-id="2089"></path></svg>